# xmcd CD database file
#
# Track frame offsets:
#	150
#	24300
#	43962
#	66320
#	86417
#	108920
#	133587
#	155692
#	175875
#	192262
#
# Disc length: 2851 seconds
#
# Revision: 0
# Processed by: cddbd v1.5PL3 Copyright (c) Steve Scherf et al.
# Submitted via: CDex 1.50
#
DISCID=840b210a
DTITLE=松本典子 - ジャスミン
DYEAR=1990
DGENRE=JPop
TTITLE0=たったひとりの恋人
TTITLE1=天使が棲む島
TTITLE2=瞳の中のブルー
TTITLE3=雨と水曜日(ALBUM VERSION)
TTITLE4=かなしいことり
TTITLE5=想い出にしたかった
TTITLE6=ジャスミン半島
TTITLE7=想いの破片
TTITLE8=初恋十二単
TTITLE9=Memories
EXTD=YEAR: 1990/10/21
EXTT0=
EXTT1=
EXTT2=
EXTT3=
EXTT4=
EXTT5=
EXTT6=
EXTT7=
EXTT8=
EXTT9=
PLAYORDER=
